<svg xmlns="http://www.w3.org/2000/svg" viewBox="0 0 1927.96 1001.24"><defs><style>.cls-1{fill:#6fb6a2;}.cls-2{fill:#4f9982;}.cls-3{fill:#2b6ea8;stroke:#004875;stroke-miterlimit:10;}.cls-4{fill:#6b8704;}.cls-5{fill:#94b43b;}</style></defs><g id="Capa_2" data-name="Capa 2"><g id="Capa_1-2" data-name="Capa 1"><path class="cls-1" d="M1726.82,316.8c-29.3-43.93-52.23-63.53-79-87.06-35-24.37-68.44-41.16-105.84-41.16-16.2-1.44-123.24,4.09-123.24,4.09-40.62,0-66.74,17.12-89.34,44.51h0l-1.23,1.51q-4.83,6-9.48,12.56c-6.74,9.46-13.31,19.79-20,30.79-18,29.56-30,100.2-30,100.2v-15.7a363.52,363.52,0,0,0-88-237.93l-1.35-1.61,1.57-1.56q8.36-9.24,17.28-17.87l1.39-1.34h0q8.09-7.8,16.58-15c39.24-33.48,85-58.81,134.71-73.2,29.54-7.75,66.85-15.6,102.15-17.09,35.71-1.51,80.23-1,109.07,0,31.61,1.05,65.53,7.18,138,42.77,59.88,32.08,87.36,48.7,163.16,137.29C1808.54,236.33,1726.82,316.8,1726.82,316.8Z"/><path class="cls-2" d="M1299.3,280.08c-18,29.56-30,100.2-30,100.2v-15.7A363.09,363.09,0,0,0,1181,126.92c.16-1.14.32-2.28.5-3.41l0,0a381.13,381.13,0,0,1,35.39-34.36c10.1,35.44,24.44,84.31,36.65,111.38,1.89,4.16,3.57,8.35,5.35,12.53C1265.07,227.7,1281.44,253.64,1299.3,280.08Z"/><path class="cls-3" d="M1331.27,769.51a174.79,174.79,0,0,0,114,42.13h1.35v-.13c13,0,25,0,37.17,0,25,.08,50.79.14,89.31,0,56.76-.3,115.51-9.64,132.75-17.83,27.15-12.94,32.39-56.06,32.52-130.62l188.56-.13h.54c0,41.74,0,93.66-14.18,145.55-24.91,91.1-82.37,135.07-126.16,155.93-70.94,33.77-189.93,36.09-213.06,36.2-19.45.11-35.68.13-50.22.13-14.77,0-27.79,0-40.57-.08-11.59,0-23,0-35.31,0v.13h-2.7A363.36,363.36,0,0,1,1198,903.9"/><path class="cls-1" d="M187.78,108.76,161.2,135.21C110.1,186.08,2.92,292.85.06,296.35a.3.3,0,0,0-.06.09V95.77l146-.11,41.74,0Z"/><path class="cls-4" d="M187.85,135.21S.06,322,.06,322.89V296.35c2.86-3.5,110-110.27,161.14-161.14l26.58-26.45Z"/><path class="cls-5" d="M1331.27,769.51,1198,903.9c-72.17-66.67-117.43-162.07-117.43-267.85V365.91c0-96.82-78.78-175.59-175.6-175.59S729.38,269.09,729.38,365.91V636.05c0,201.1-163.6,364.7-364.69,364.7S0,837.15,0,636.05L.06,322.89c0-.91,187.79-187.68,187.79-187.68l1.25,500.84c0,96.82,78.77,175.6,175.59,175.6s175.59-78.78,175.59-175.6V365.91C540.28,164.82,703.88,1.22,905,1.22c109.69,0,208.23,48.68,275.14,125.57.43.48.85,1,1.26,1.46a363.09,363.09,0,0,1,88.3,237.66V636.05A175.26,175.26,0,0,0,1331.27,769.51Z"/></g></g></svg>